<svg width="99" height="16" viewBox="0 0 99 16" fill="none" xmlns="http://www.w3.org/2000/svg">
<path d="M7.24227 15.32C5.78893 15.32 4.52893 15.0533 3.46227 14.52C2.40893 13.9867 1.58893 13.2533 1.00227 12.32C0.428932 11.3733 0.142266 10.2867 0.142266 9.06C0.142266 7.82 0.355599 6.69333 0.782266 5.68C1.22227 4.65333 1.8356 3.76667 2.62227 3.02C3.40893 2.27333 4.34227 1.7 5.42227 1.3C6.50227 0.886666 7.68227 0.68 8.96227 0.68C10.4156 0.68 11.6689 0.946666 12.7223 1.48C13.7889 2.01333 14.6089 2.75333 15.1823 3.7C15.7689 4.63333 16.0623 5.71333 16.0623 6.94C16.0623 8.18 15.8423 9.31333 15.4023 10.34C14.9756 11.3533 14.3689 12.2333 13.5823 12.98C12.7956 13.7267 11.8623 14.3067 10.7823 14.72C9.70227 15.12 8.52227 15.32 7.24227 15.32ZM7.64227 11.5C8.22893 11.5 8.74227 11.3867 9.18227 11.16C9.6356 10.9333 10.0223 10.62 10.3423 10.22C10.6623 9.82 10.9023 9.36667 11.0623 8.86C11.2223 8.34 11.3023 7.79333 11.3023 7.22C11.3023 6.67333 11.1889 6.2 10.9623 5.8C10.7489 5.38667 10.4356 5.06667 10.0223 4.84C9.62227 4.61333 9.1356 4.5 8.56227 4.5C7.98893 4.5 7.4756 4.61333 7.02227 4.84C6.56893 5.06667 6.18227 5.38 5.86227 5.78C5.54227 6.18 5.30227 6.64 5.14227 7.16C4.98227 7.66667 4.90227 8.20667 4.90227 8.78C4.90227 9.31333 5.00893 9.78667 5.22227 10.2C5.44893 10.6133 5.76227 10.9333 6.16227 11.16C6.5756 11.3867 7.06893 11.5 7.64227 11.5ZM24.2754 15.32C22.8354 15.32 21.5754 15.06 20.4954 14.54C19.4154 14.0067 18.5754 13.2733 17.9754 12.34C17.3887 11.3933 17.0954 10.3 17.0954 9.06C17.0954 7.83333 17.3087 6.70667 17.7354 5.68C18.1754 4.65333 18.7887 3.76667 19.5754 3.02C20.3621 2.27333 21.2954 1.7 22.3754 1.3C23.4554 0.886666 24.6421 0.68 25.9354 0.68C27.2821 0.68 28.4754 0.92 29.5154 1.4C30.5554 1.88 31.3287 2.57333 31.8354 3.48L28.4354 6.14C28.1421 5.62 27.7621 5.22 27.2954 4.94C26.8287 4.64667 26.2754 4.5 25.6354 4.5C25.0754 4.5 24.5621 4.60667 24.0954 4.82C23.6421 5.02 23.2487 5.31333 22.9154 5.7C22.5821 6.07333 22.3221 6.52 22.1354 7.04C21.9487 7.56 21.8554 8.13333 21.8554 8.76C21.8554 9.30667 21.9754 9.78667 22.2154 10.2C22.4554 10.6133 22.7887 10.9333 23.2154 11.16C23.6554 11.3867 24.1621 11.5 24.7354 11.5C25.2821 11.5 25.8154 11.3733 26.3354 11.12C26.8687 10.8667 27.3754 10.4533 27.8554 9.88L30.6354 12.54C29.7821 13.58 28.8287 14.3067 27.7754 14.72C26.7354 15.12 25.5687 15.32 24.2754 15.32ZM34.1405 15L36.2005 4.66H32.1005L32.8405 0.999999H45.7605L45.0205 4.66H40.9205L38.8605 15H34.1405ZM44.1865 15L46.9865 0.999999H51.7065L48.9065 15H44.1865ZM51.1787 15L53.9787 0.999999H57.8187L61.5587 10.14H59.5187L66.7187 0.999999H70.7387L67.9787 15H63.6787L65.1387 7.48L65.8187 7.44L60.9787 13.74H58.8987L56.1787 7.42L56.9787 7.48L55.4787 15H51.1787ZM68.7407 15L77.6607 0.999999H82.3007L85.6207 15H80.9207L78.6607 3.18H80.5007L73.7207 15H68.7407ZM72.8607 12.56L74.7407 9.16H81.1807L81.7007 12.56H72.8607ZM86.374 15L89.174 0.999999H93.894L91.834 11.34H98.154L97.414 15H86.374Z" fill="#1E1E1E" fill-opacity="0.68"/>
</svg>
